<svg id="Layer_1" data-name="Layer 1" xmlns="http://www.w3.org/2000/svg" viewBox="0 0 799.7 799.7"><defs><style>.cls-1{fill:#636363;}</style></defs><title>new</title><path class="cls-1" d="M399.85.3C179,.3,0,179.32,0,400.15S179,800,399.85,800,799.7,621,799.7,400.15,620.68.3,399.85.3ZM280.21,490.21a56.28,56.28,0,0,1-37.7-104.39,33.74,33.74,0,0,1,22.15-32.88l14.13-5.1c12.82-4.63,25.63-9.95,38.25-15.76l54.84,151.84c-13.42,3.59-26.67,7.69-39.49,12.32l-14.13,5.1A33.74,33.74,0,0,1,280.21,490.21Zm115.45,103A33.72,33.72,0,0,1,354.74,578l-31-54.84c.72-.23,1.44-.4,2.15-.66l14.13-5.1a473,473,0,0,1,49.3-14.69l24,42.81A33.33,33.33,0,0,1,395.66,593.22Zm-1.74-114.64L337.41,322.11C385.7,297.22,407.76,277.82,439.9,252l77.66,215C476,467.7,446.75,466.92,393.92,478.58Zm177,3.42A22.54,22.54,0,0,1,542,468.45l-84.23-233.2a22.54,22.54,0,1,1,42.4-15.31l84.22,233.2A22.54,22.54,0,0,1,570.9,482Z" transform="translate(0 -0.3)"/><path class="cls-1" d="M238.46,446.29a33.87,33.87,0,0,0,32,22.33l-21.66-60A33.87,33.87,0,0,0,238.46,446.29Z" transform="translate(0 -0.3)"/></svg>