<svg id="Layer_1" data-name="Layer 1" xmlns="http://www.w3.org/2000/svg" viewBox="0 0 50 50"><defs><style>.cls-1{fill:#636363;}</style></defs><title>plurk</title><path class="cls-1" d="M250.25,225.25a25,25,0,1,0,25,25A25,25,0,0,0,250.25,225.25ZM245,262.15a6.25,6.25,0,0,1-5.28-4.09c-.59-1.76-.36-3.78-.39-5.61a36.23,36.23,0,0,1,.22-6.27,9.53,9.53,0,0,1,6-7.38A11.54,11.54,0,0,1,257.65,240a9.57,9.57,0,0,1,.15,15.63,11.45,11.45,0,0,1-5.35,2.29,1.38,1.38,0,0,0-.78.69A6.49,6.49,0,0,1,245,262.15Z" transform="translate(-225.25 -225.25)"/><path class="cls-1" d="M255.92,243.83a8,8,0,0,0-9.69-.8,5.53,5.53,0,0,0-2.75,4.55c-.06,2.84,0,5.68,0,8.52a2.24,2.24,0,0,0,.47,1.25,2.49,2.49,0,0,0,2.8.63,2.09,2.09,0,0,0,1.43-2.13c0-.58,0-1.15,0-1.82.8,0,1.45,0,2.1,0a8.71,8.71,0,0,0,4.13-1C258.1,251,258.82,246.6,255.92,243.83Zm-5,6.07c-.75.07-1.5.05-2.26.06a2.31,2.31,0,0,1-.45-.09,21.5,21.5,0,0,1,0-2.41,2.38,2.38,0,0,1,2.5-1.69,2.26,2.26,0,0,1,2.22,2.08A2,2,0,0,1,250.93,249.9Z" transform="translate(-225.25 -225.25)"/></svg>